<?xml version="1.0" standalone="no"?>
<!DOCTYPE svg PUBLIC "-//W3C//DTD SVG 20010904//EN"
 "http://www.w3.org/TR/2001/REC-SVG-20010904/DTD/svg10.dtd">
<svg version="1.0" xmlns="http://www.w3.org/2000/svg"
 width="280.000000pt" height="280.000000pt" viewBox="0 0 280.000000 280.000000"
 preserveAspectRatio="xMidYMid meet">

<g transform="translate(0.000000,280.000000) scale(0.100000,-0.100000)"
fill="#000000" stroke="none">
<path d="M162 1937 c-18 -100 -37 -183 -42 -185 -6 -2 -10 -10 -10 -18 0 -11
18 -14 83 -14 91 0 104 5 84 29 -8 9 -27 90 -42 181 -15 91 -31 170 -34 177
-3 7 -21 -70 -39 -170z"/>
<path d="M2572 2070 c-6 -30 -21 -109 -33 -175 -11 -66 -23 -127 -26 -135 -3
-8 -4 -93 -3 -187 l1 -173 -25 0 c-20 0 -26 -5 -26 -22 1 -13 7 -34 15 -48 12
-20 14 -93 15 -394 0 -340 -1 -370 -17 -382 -17 -13 -17 -15 -1 -27 15 -12 15
-22 2 -122 -7 -61 -13 -113 -14 -117 0 -5 -4 -8 -10 -8 -6 0 -10 47 -10 120
l0 120 -40 0 -41 0 4 248 c2 136 7 259 11 275 7 22 5 27 -9 27 -15 0 -16 13
-14 118 1 65 0 123 -3 128 -3 5 -16 69 -29 141 -12 73 -24 131 -26 129 -2 -2
-15 -61 -29 -132 -20 -101 -25 -157 -24 -256 1 -114 0 -128 -15 -128 -14 0
-16 -6 -10 -32 5 -18 8 -105 9 -193 l1 -160 -42 -3 c-37 -3 -43 0 -43 17 0 14
-8 21 -27 23 -27 3 -28 5 -31 67 -2 45 1 67 10 72 10 7 10 9 1 9 -9 0 -13 22
-13 75 l0 75 -50 0 c-38 0 -50 4 -50 15 0 8 -9 15 -19 15 -12 0 -31 19 -51 50
-86 133 -244 231 -412 255 -41 6 -48 11 -48 29 0 12 -4 26 -9 32 -5 5 -13 36
-18 69 l-9 60 -7 -62 c-5 -34 -12 -65 -17 -68 -6 -4 -10 -16 -10 -28 0 -20 -9
-24 -81 -39 -156 -32 -277 -110 -368 -235 -26 -36 -53 -63 -63 -63 -10 0 -18
-7 -18 -15 0 -11 -12 -15 -49 -15 l-49 0 -5 -72 c-3 -40 -6 -108 -6 -150 0
-77 0 -78 -25 -78 -19 0 -26 -5 -26 -20 0 -18 -7 -20 -70 -20 l-70 0 0 160 c0
103 4 168 12 186 10 22 10 28 -6 39 -15 12 -17 28 -16 132 1 65 0 125 -3 133
-3 8 -15 69 -26 134 -12 66 -23 121 -25 124 -3 2 -8 -13 -12 -34 -3 -22 -15
-82 -26 -134 -13 -67 -19 -132 -18 -222 1 -114 0 -128 -15 -128 -14 0 -16 -6
-10 -33 5 -17 10 -141 12 -274 l4 -243 -41 0 -40 0 0 -114 c0 -102 -8 -143
-24 -118 -2 4 -10 56 -17 115 -9 86 -9 110 1 122 10 13 10 19 -4 33 -14 17
-16 59 -16 378 1 292 3 364 15 384 22 38 19 80 -5 80 -19 0 -20 7 -20 155 l0
155 -75 0 -75 0 0 -155 c0 -148 -1 -155 -20 -155 -24 0 -27 -42 -5 -80 12 -20
14 -92 15 -387 0 -332 -1 -363 -17 -372 -15 -8 -16 -13 -4 -33 10 -20 9 -55
-8 -206 -12 -100 -21 -194 -21 -207 l0 -25 1330 0 c732 0 1330 1 1330 3 0 1
-11 96 -25 212 -15 130 -21 211 -15 213 13 5 13 42 0 42 -12 0 -7 727 5 798 6
38 5 42 -14 42 -20 0 -21 4 -21 160 0 100 4 160 10 160 13 0 13 27 0 32 -5 2
-23 82 -40 178 -17 96 -32 180 -34 185 -2 6 -8 -15 -14 -45z m-1744 -1072 c22
-22 14 -48 -13 -48 -20 0 -25 5 -25 23 0 36 16 47 38 25z m71 -2 c7 -8 11 -37
9 -66 l-3 -52 -28 43 c-23 35 -27 47 -18 66 12 26 24 29 40 9z m69 2 c7 -7 12
-36 12 -66 0 -52 -1 -53 -27 -50 -25 3 -28 8 -31 45 -3 41 10 83 26 83 5 0 13
-5 20 -12z m66 6 c12 -5 16 -21 16 -66 0 -59 0 -59 -27 -56 -25 3 -28 8 -31
45 -2 23 2 51 8 63 12 22 12 22 34 14z m70 0 c12 -5 16 -21 16 -66 0 -59 0
-59 -27 -56 -25 3 -28 8 -31 45 -2 23 2 51 8 63 12 22 12 22 34 14z m84 -6 c7
-7 12 -36 12 -65 0 -52 0 -53 -30 -53 -30 0 -30 0 -30 59 0 54 5 67 31 70 3 1
10 -4 17 -11z m82 -8 c6 -12 10 -40 8 -63 -3 -39 -5 -42 -33 -42 -29 0 -30 2
-33 48 -4 69 33 105 58 57z m64 14 c12 -5 16 -21 16 -65 0 -59 0 -59 -30 -59
-30 0 -30 1 -30 53 0 29 5 58 12 65 14 14 12 14 32 6z m86 -4 c9 -6 14 -27 15
-62 0 -53 0 -53 -32 -56 l-33 -3 0 53 c0 66 17 89 50 68z m74 4 c12 -5 16 -21
16 -65 0 -59 0 -59 -30 -59 -30 0 -30 1 -30 53 0 29 5 58 12 65 14 14 12 14
32 6z m84 -6 c7 -7 12 -36 12 -65 0 -52 0 -53 -30 -53 -30 0 -30 0 -30 59 0
54 5 67 31 70 3 1 10 -4 17 -11z m82 -8 c6 -12 10 -40 8 -63 -3 -39 -5 -42
-33 -42 -28 0 -30 3 -33 42 -3 47 11 83 33 83 8 0 19 -9 25 -20z m68 8 c7 -7
12 -36 12 -65 0 -52 0 -53 -30 -53 -30 0 -30 1 -30 53 0 47 12 77 30 77 3 0
11 -5 18 -12z m70 0 c7 -7 12 -36 12 -65 0 -52 0 -53 -30 -53 -30 0 -30 1 -30
53 0 47 12 77 30 77 3 0 11 -5 18 -12z m70 0 c7 -7 12 -36 12 -66 0 -52 -1
-53 -27 -50 -26 3 -28 7 -31 51 -4 63 18 93 46 65z m72 -3 c14 -17 8 -91 -9
-108 -22 -22 -41 1 -41 51 0 63 23 89 50 57z m70 -5 c14 -25 7 -36 -25 -42
-20 -4 -25 -1 -25 16 0 22 17 46 32 46 4 0 12 -9 18 -20z m-1100 -201 c0 -44
-4 -68 -10 -64 -5 3 -10 35 -10 71 0 36 4 64 10 64 6 0 10 -30 10 -71z m1017
-36 c-2 -21 -4 -4 -4 37 0 41 2 58 4 38 2 -21 2 -55 0 -75z m-1097 -23 c0 -22
-4 -40 -10 -40 -5 0 -10 18 -10 40 0 22 5 40 10 40 6 0 10 -18 10 -40z m1177
-22 c-2 -13 -4 -3 -4 22 0 25 2 35 4 23 2 -13 2 -33 0 -45z m-1037 -283 c0
-190 -4 -295 -10 -295 -6 0 -10 105 -10 295 0 190 4 295 10 295 6 0 10 -105
10 -295z m897 -142 c-1 -82 -3 -15 -3 147 0 162 2 229 3 148 2 -82 2 -214 0
-295z m-431 323 c16 -12 19 -27 19 -98 l0 -83 -47 -3 -48 -3 0 85 c0 76 2 86
22 100 27 19 29 20 54 2z m-122 -72 c3 -9 6 -38 6 -65 0 -48 -1 -49 -30 -49
-30 0 -30 0 -30 58 0 32 3 62 7 65 12 13 41 7 47 -9z m235 2 c7 -8 11 -36 9
-63 -3 -46 -4 -48 -33 -48 -28 0 -30 3 -33 42 -5 67 27 105 57 69z m-719 -10
c0 -8 -4 -18 -10 -21 -5 -3 -10 3 -10 14 0 12 5 21 10 21 6 0 10 -6 10 -14z
m1177 -18 c-3 -7 -5 -2 -5 12 0 14 2 19 5 13 2 -7 2 -19 0 -25z m-1177 -164
c0 -8 -4 -14 -10 -14 -5 0 -10 9 -10 21 0 11 5 17 10 14 6 -3 10 -13 10 -21z
m1177 -6 c-3 -7 -5 -2 -5 12 0 14 2 19 5 13 2 -7 2 -19 0 -25z m-927 -59 c0
-59 0 -59 -30 -59 -29 0 -30 1 -30 49 0 53 19 84 45 75 11 -5 15 -22 15 -65z
m108 59 c7 -7 12 -36 12 -65 0 -52 0 -53 -30 -53 -30 0 -30 1 -30 53 0 47 12
77 30 77 3 0 11 -5 18 -12z m120 0 c7 -7 12 -36 12 -65 0 -52 0 -53 -30 -53
-30 0 -30 1 -30 53 0 47 12 77 30 77 3 0 11 -5 18 -12z m120 0 c7 -7 12 -36
12 -65 0 -52 0 -53 -30 -53 -30 0 -30 0 -30 59 0 54 5 67 31 70 3 1 10 -4 17
-11z m122 -7 c5 -11 10 -40 10 -65 0 -46 0 -46 -35 -46 l-35 0 0 49 c0 68 36
105 60 62z m114 3 c10 -10 16 -33 16 -65 l0 -49 -35 0 c-35 0 -35 0 -35 46 0
46 13 84 30 84 5 0 16 -7 24 -16z m114 4 c7 -7 12 -36 12 -65 0 -52 0 -53 -30
-53 -30 0 -30 1 -30 53 0 47 12 77 30 77 3 0 11 -5 18 -12z"/>
</g>
</svg>
