<?xml version="1.0" encoding="UTF-8"?>
<svg id="Layer_1" xmlns="http://www.w3.org/2000/svg" viewBox="0 0 1080 1080">
  <defs>
    <style>
      .cls-1 {
        fill: #8a8c8e;
      }

      .cls-2 {
        fill: #fff;
      }
    </style>
  </defs>
  <g>
    <path class="cls-2" d="M655.5,229.63h-231.01c-15.95,0-28.88,12.93-28.88,28.88v263.09c0,15.95,12.93,28.88,28.88,28.88h231.01c15.95,0,28.88-12.93,28.88-28.88v-263.09c0-15.95-12.93-28.88-28.88-28.88ZM668.34,521.6c0,7.08-5.76,12.83-12.83,12.83h-231.01c-7.08,0-12.83-5.76-12.83-12.83v-263.09c0-7.08,5.76-12.83,12.83-12.83h231.01c7.08,0,12.83,5.76,12.83,12.83v263.09Z"/>
    <polygon class="cls-2" points="467.81 502.35 503.91 470.27 467.81 438.18 467.81 502.35"/>
    <path class="cls-2" d="M598.22,372.31c-6.47-6.54-18.34-14.34-38.17-14.34-21.75,0-44.14,5.66-60.16,10.87v-91.08h-32.08v139.13l22.66-10.27c.36-.17,36.96-16.57,69.58-16.57,16.29,0,19.9,8.99,20.05,16.48v95.81h32.08v-96.25c.02-2.05-.17-19.83-13.97-33.79Z"/>
    <path class="cls-2" d="M556.04,329.9h32.08c14.51-16.44,21.9-33.91,24.06-52.14h-32.08c-3.54,18.18-11.46,35.59-24.06,52.14Z"/>
  </g>
  <g>
    <path class="cls-2" d="M214.97,777.35l-1.61,5.18c-1.81-.39-3.57-.57-5.26-.51-5.32.06-7.98,2.97-7.98,8.74v3.57h10.86v5.52h-10.86v37.68h-7.21v-37.68h-7.55v-4.58l7.55-.93v-3.73c0-4.58,1.22-8.1,3.65-10.57,2.43-2.46,6.05-3.72,10.86-3.78,2.77,0,5.29.37,7.55,1.1Z"/>
    <path class="cls-2" d="M218.88,804c0-3.17-.2-6.39-.6-9.67h6.88c.28,1.92.48,4.22.59,6.87h.17c2.49-5.37,7.02-8.06,13.58-8.06.45,0,1.27.09,2.46.25l-.42,6.2c-.57-.11-1.44-.17-2.63-.17-4.13,0-7.3,1.39-9.51,4.16-2.21,2.77-3.31,6.37-3.31,10.78v23.17h-7.21v-33.53Z"/>
    <path class="cls-2" d="M287.97,815.8c0,4.47-.87,8.44-2.59,11.93-1.73,3.48-4.21,6.18-7.47,8.1-3.26,1.92-7.15,2.89-11.67,2.89s-8.35-.98-11.63-2.93c-3.28-1.95-5.77-4.65-7.47-8.1-1.7-3.45-2.55-7.41-2.55-11.88,0-6.9,1.89-12.4,5.69-16.51,3.79-4.1,9.11-6.15,15.96-6.15,4.58,0,8.5.95,11.75,2.84,3.25,1.9,5.73,4.54,7.43,7.94,1.7,3.39,2.55,7.36,2.55,11.88ZM252.06,815.8c0,5.15,1.17,9.29,3.52,12.43,2.35,3.14,5.9,4.71,10.65,4.71s8.4-1.57,10.78-4.71c2.38-3.14,3.56-7.28,3.56-12.43s-1.19-9.25-3.56-12.31c-2.38-3.06-5.97-4.58-10.78-4.58s-8.38,1.53-10.69,4.58c-2.32,3.06-3.48,7.16-3.48,12.31Z"/>
    <path class="cls-2" d="M297.3,804c0-3.17-.2-6.39-.6-9.67h6.88c.28,1.53.48,3.56.59,6.11h.17c1.36-2.15,3.27-3.9,5.73-5.26,2.46-1.36,5.3-2.04,8.53-2.04,3.68,0,6.67.78,9,2.33,2.32,1.56,4.02,3.69,5.09,6.41h.17c1.47-2.72,3.48-4.85,6.03-6.41,2.55-1.56,5.6-2.33,9.17-2.33s6.54.78,8.91,2.33c2.38,1.56,4.13,3.59,5.26,6.11,1.13,2.52,1.7,5.28,1.7,8.28v27.67h-7.21v-26.65c0-3.34-.81-6.14-2.42-8.4-1.61-2.26-4.2-3.39-7.77-3.39-2.6,0-4.84.68-6.7,2.04-1.87,1.36-3.28,3.17-4.24,5.43-.96,2.26-1.44,4.7-1.44,7.3v23.68h-7.21v-26.82c0-3.28-.82-6.04-2.46-8.28-1.64-2.23-4.22-3.35-7.72-3.35-3.74,0-6.71,1.32-8.91,3.95-2.21,2.63-3.31,5.87-3.31,9.72v24.78h-7.21v-33.53Z"/>
    <path class="cls-2" d="M506.36,831.93l3.82-4.75c2.43,1.92,4.95,3.31,7.55,4.16,2.6.85,5.54,1.27,8.83,1.27,4.07,0,7.37-.95,9.89-2.84,2.52-1.9,3.78-4.65,3.78-8.28,0-2.55-.59-4.61-1.78-6.2-1.19-1.58-2.83-2.86-4.92-3.82-2.1-.96-4.87-1.89-8.32-2.8-5.6-1.47-9.79-3.46-12.56-5.98-2.77-2.52-4.16-6.04-4.16-10.57,0-5.03,1.88-8.97,5.65-11.8,3.76-2.83,8.56-4.24,14.39-4.24,3.68,0,7,.48,9.97,1.44,2.97.96,5.73,2.38,8.28,4.24l-3.39,4.92c-2.38-1.53-4.74-2.66-7.09-3.39-2.35-.73-4.94-1.1-7.77-1.1-3.79,0-6.85.81-9.17,2.42-2.32,1.61-3.48,3.95-3.48,7s1.06,5.36,3.18,6.92c2.12,1.56,5.59,2.96,10.4,4.2,6.05,1.58,10.64,3.73,13.75,6.45,3.11,2.72,4.67,6.73,4.67,12.05,0,3.85-.95,7.1-2.84,9.76-1.89,2.66-4.45,4.65-7.68,5.98-3.23,1.33-6.85,1.99-10.86,1.99-7.81,0-14.51-2.35-20.11-7.04Z"/>
    <path class="cls-2" d="M554.31,825.73c0-5.6,2.02-9.49,6.07-11.67,4.04-2.18,10.14-3.27,18.29-3.27,1.98,0,3.48.03,4.5.09v-2.46c0-3.22-.88-5.63-2.63-7.21-1.75-1.58-4.44-2.38-8.06-2.38-4.58,0-8.91,1.22-12.99,3.65l-2.54-4.84c4.87-3,10.18-4.5,15.96-4.5,6.05,0,10.48,1.42,13.28,4.24,2.8,2.83,4.2,7.13,4.2,12.9v17.65c0,3.11.2,6.31.59,9.59h-6.62c-.39-2.49-.59-4.44-.59-5.86h-.25c-1.58,2.32-3.58,4.07-5.98,5.26-2.4,1.19-5.5,1.78-9.29,1.78-4.19,0-7.55-1.12-10.1-3.35-2.54-2.23-3.82-5.45-3.82-9.63ZM583.17,821.57v-5.6l-3.82-.09c-4.25,0-7.63.28-10.14.85-2.52.57-4.39,1.53-5.6,2.89-1.22,1.36-1.83,3.26-1.83,5.69s.74,4.4,2.21,5.73c1.47,1.33,3.51,2,6.11,2s5.06-.58,7.04-1.74c1.98-1.16,3.48-2.62,4.5-4.37,1.02-1.75,1.53-3.54,1.53-5.35Z"/>
    <path class="cls-2" d="M611.17,777.44v60.09h-7.21v-60.09h7.21Z"/>
    <path class="cls-2" d="M661.59,818.52h-32.08c.28,4.41,1.61,7.92,3.99,10.52,2.38,2.6,5.77,3.9,10.18,3.9,2.6,0,4.94-.35,7-1.06,2.06-.71,4.15-1.77,6.24-3.18l3.23,4.67c-2.43,1.75-5.02,3.08-7.77,3.99-2.75.9-5.78,1.36-9.12,1.36-6.62,0-11.78-2.09-15.49-6.28-3.71-4.19-5.56-9.76-5.56-16.72,0-4.47.79-8.4,2.38-11.8,1.58-3.39,3.89-6.04,6.92-7.94,3.02-1.89,6.66-2.84,10.91-2.84,6.28,0,11.08,2.04,14.39,6.11,3.31,4.07,4.96,9.48,4.96,16.21,0,1.36-.06,2.38-.17,3.06ZM654.72,812.91c-.12-4.3-1.22-7.75-3.31-10.36-2.09-2.6-5.12-3.9-9.08-3.9s-7.13,1.34-9.33,4.03c-2.21,2.69-3.39,6.1-3.57,10.23h25.29Z"/>
    <path class="cls-2" d="M698.84,797.72l-3.23,4.5c-3.34-2.32-6.96-3.48-10.86-3.48-2.72,0-4.84.52-6.36,1.57-1.53,1.05-2.29,2.53-2.29,4.46,0,1.41.31,2.58.93,3.48.62.91,1.67,1.67,3.14,2.29,1.47.62,3.62,1.27,6.45,1.95,4.41,1.08,7.68,2.65,9.8,4.71,2.12,2.07,3.18,4.77,3.18,8.1,0,4.24-1.59,7.54-4.75,9.89-3.17,2.35-7.07,3.52-11.71,3.52-6.23,0-11.43-1.67-15.62-5.01l3.31-4.5c1.92,1.3,3.82,2.26,5.69,2.89,1.87.62,3.99.93,6.37.93,2.89,0,5.16-.62,6.83-1.87,1.67-1.24,2.5-3.03,2.5-5.35,0-1.53-.31-2.76-.93-3.69-.63-.93-1.66-1.71-3.1-2.33-1.44-.62-3.61-1.3-6.49-2.04-4.47-1.13-7.72-2.66-9.76-4.58-2.04-1.92-3.05-4.58-3.05-7.98,0-3.68,1.43-6.61,4.28-8.79,2.86-2.18,6.63-3.27,11.33-3.27,5.54,0,10.32,1.53,14.34,4.58Z"/>
    <path class="cls-2" d="M735,777.35l-1.61,5.18c-1.81-.39-3.57-.57-5.26-.51-5.32.06-7.98,2.97-7.98,8.74v3.57h10.86v5.52h-10.86v37.68h-7.21v-37.68h-7.55v-4.58l7.55-.93v-3.73c0-4.58,1.22-8.1,3.65-10.57,2.43-2.46,6.05-3.72,10.86-3.78,2.77,0,5.29.37,7.55,1.1Z"/>
    <path class="cls-2" d="M779.22,815.8c0,4.47-.87,8.44-2.59,11.93-1.73,3.48-4.21,6.18-7.47,8.1-3.26,1.92-7.15,2.89-11.67,2.89s-8.35-.98-11.63-2.93c-3.28-1.95-5.77-4.65-7.47-8.1-1.7-3.45-2.55-7.41-2.55-11.88,0-6.9,1.89-12.4,5.69-16.51,3.79-4.1,9.11-6.15,15.96-6.15,4.58,0,8.5.95,11.75,2.84,3.25,1.9,5.73,4.54,7.43,7.94,1.7,3.39,2.55,7.36,2.55,11.88ZM743.32,815.8c0,5.15,1.17,9.29,3.52,12.43,2.35,3.14,5.9,4.71,10.65,4.71s8.4-1.57,10.78-4.71c2.38-3.14,3.56-7.28,3.56-12.43s-1.19-9.25-3.56-12.31c-2.38-3.06-5.97-4.58-10.78-4.58s-8.38,1.53-10.69,4.58c-2.32,3.06-3.48,7.16-3.48,12.31Z"/>
    <path class="cls-2" d="M788.55,804c0-3.17-.2-6.39-.6-9.67h6.88c.28,1.92.48,4.22.59,6.87h.17c2.49-5.37,7.02-8.06,13.58-8.06.45,0,1.27.09,2.46.25l-.42,6.2c-.57-.11-1.44-.17-2.63-.17-4.13,0-7.3,1.39-9.51,4.16-2.21,2.77-3.31,6.37-3.31,10.78v23.17h-7.21v-33.53Z"/>
    <path class="cls-2" d="M835.66,793.14c2.72,0,5.3.41,7.77,1.23,2.46.82,4.65,1.97,6.58,3.44l-2.89,5.01c-3.28-2.43-7.1-3.65-11.46-3.65-4.64,0-8.15,1.51-10.53,4.54-2.38,3.03-3.56,7.09-3.56,12.18s1.19,9.01,3.56,12.09c2.38,3.08,5.86,4.63,10.44,4.63,3.9,0,7.78-1.22,11.63-3.65l2.63,5.09c-4.3,3.11-9.22,4.67-14.77,4.67-4.87,0-8.86-1.09-11.97-3.27-3.11-2.18-5.36-4.99-6.75-8.44-1.39-3.45-2.08-7.16-2.08-11.12,0-6.9,1.89-12.42,5.69-16.55,3.79-4.13,9.03-6.2,15.7-6.2Z"/>
    <path class="cls-2" d="M894.48,818.52h-32.08c.28,4.41,1.61,7.92,3.99,10.52,2.38,2.6,5.77,3.9,10.18,3.9,2.6,0,4.94-.35,7-1.06,2.06-.71,4.15-1.77,6.24-3.18l3.23,4.67c-2.43,1.75-5.02,3.08-7.77,3.99-2.75.9-5.78,1.36-9.12,1.36-6.62,0-11.78-2.09-15.49-6.28-3.71-4.19-5.56-9.76-5.56-16.72,0-4.47.79-8.4,2.38-11.8,1.58-3.39,3.89-6.04,6.92-7.94,3.02-1.89,6.66-2.84,10.91-2.84,6.28,0,11.08,2.04,14.39,6.11,3.31,4.07,4.96,9.48,4.96,16.21,0,1.36-.06,2.38-.17,3.06ZM887.6,812.91c-.12-4.3-1.22-7.75-3.31-10.36-2.09-2.6-5.12-3.9-9.08-3.9s-7.13,1.34-9.33,4.03c-2.21,2.69-3.39,6.1-3.57,10.23h25.29Z"/>
    <path class="cls-1" d="M428.68,783.56c1.72-1.83,3.79-3.28,6.1-4.25,2.29-1.01,4.75-1.54,7.25-1.54,3.33.01,6.59.93,9.45,2.65,2.86,1.72,5.21,4.18,6.81,7.13,2.93-1.3,6.09-1.98,9.29-2,6.1,0,11.96,2.45,16.27,6.82,4.32,4.37,6.74,10.29,6.74,16.47s-2.43,12.1-6.74,16.47c-4.32,4.37-10.17,6.82-16.27,6.82-1.5.02-3-.15-4.46-.52-2.06,3.76-5.47,6.57-9.53,7.86-4.08,1.25-8.48.93-12.34-.9-1.46,3.57-4,6.59-7.25,8.62-3.21,2.11-6.98,3.19-10.81,3.09-3.8-.04-7.5-1.27-10.58-3.53-3.1-2.24-5.45-5.38-6.75-9-1.21.26-2.45.39-3.68.38-3.11-.05-6.15-.93-8.83-2.53-2.68-1.6-4.9-3.88-6.44-6.61-1.54-2.73-2.36-5.82-2.37-8.97,0-3.15.79-6.24,2.33-8.98,1.55-2.73,3.8-4.99,6.5-6.55-1.98-4.65-2.21-9.87-.63-14.67,1.58-4.78,4.82-8.82,9.11-11.38,4.32-2.58,9.44-3.45,14.36-2.45,4.95.86,9.41,3.57,12.48,7.6h0Z"/>
  </g>
  <g>
    <path class="cls-2" d="M191.05,625.49h28.57v39.28h35.14v-39.28h28.58v105.72h-28.58v-42.72h-35.14v42.72h-28.57v-105.72Z"/>
    <path class="cls-2" d="M320.14,625.49h75.43v23.72h-46.86v17.14h33.43v22.29h-33.43v19.57h49.29v23h-77.86v-105.72Z"/>
    <path class="cls-2" d="M429.38,625.49h41.29c27.14,0,43.72,9,43.72,34.43,0,16.57-7,26.15-20.86,30.85l22.43,40.43h-30.28l-20.43-36.71h-7.86v36.71h-28v-105.72ZM469.67,672.78c11.71,0,16.86-3.29,16.86-12.14s-5.14-12-16.86-12h-12.29v24.14h12.29Z"/>
    <path class="cls-2" d="M544.19,678.35c0-38.71,26.43-54.86,52-54.86s51.86,16.15,51.86,54.86-26.43,54.86-51.86,54.86-52-16.14-52-54.86ZM619.48,678.35c0-19.43-8.43-31.28-23.28-31.28s-23.43,11.85-23.43,31.28,8.43,32.01,23.43,32.01,23.28-12.57,23.28-32.01Z"/>
    <path class="cls-2" d="M679.86,625.49h28.57v38.29l29.15-38.29h33.14l-35.57,41.71,38.72,64h-32.29l-25-42.29-8.15,9.43v32.86h-28.57v-105.72Z"/>
    <path class="cls-2" d="M800.24,688.78v-63.29h28.57v63.15c0,14.56,4.72,21.14,16.15,21.14s16-6.57,16-21.14v-63.15h28v63.29c0,28-13.43,44-44.29,44s-44.43-15.99-44.43-44Z"/>
  </g>
</svg>