<?xml version="1.0" standalone="no"?>
<!DOCTYPE svg PUBLIC "-//W3C//DTD SVG 20010904//EN"
 "http://www.w3.org/TR/2001/REC-SVG-20010904/DTD/svg10.dtd">
<svg version="1.0" xmlns="http://www.w3.org/2000/svg"
 width="512.000000pt" height="247.000000pt" viewBox="0 0 512.000000 247.000000"
 preserveAspectRatio="xMidYMid meet">

<g transform="translate(0.000000,247.000000) scale(0.100000,-0.100000)"
fill="#000000" stroke="none">
<path d="M1373 2125 c-76 -21 -135 -53 -341 -187 -194 -125 -506 -356 -604
-446 -119 -111 -170 -212 -169 -336 1 -83 23 -134 83 -192 53 -50 479 -376
597 -455 332 -223 608 -237 822 -40 114 105 703 749 728 797 19 34 25 62 25
108 0 91 -29 143 -143 256 -107 106 -214 184 -419 308 -305 185 -433 226 -579
187z m468 -461 c144 -43 250 -170 265 -321 25 -241 -193 -445 -431 -402 -295
53 -412 402 -208 620 98 105 238 143 374 103z"/>
<path d="M1695 1411 c-75 -31 -91 -144 -26 -190 64 -46 150 -16 172 58 25 85
-64 165 -146 132z"/>
<path d="M3532 2120 c-114 -32 -385 -183 -594 -330 -120 -84 -277 -239 -308
-305 -33 -68 -33 -156 1 -219 25 -48 614 -692 728 -797 214 -197 490 -183 822
40 118 79 544 405 597 455 60 58 82 109 83 192 1 124 -50 225 -169 336 -149
138 -675 508 -839 592 -113 57 -212 68 -321 36z m5 -474 c73 -33 154 -112 184
-180 101 -229 -32 -481 -276 -525 -287 -52 -522 250 -402 513 36 77 70 120
131 160 110 73 245 85 363 32z"/>
<path d="M3333 1404 c-18 -9 -39 -32 -49 -52 -15 -32 -15 -41 -3 -76 26 -75
106 -101 168 -56 107 75 1 244 -116 184z"/>
</g>
</svg>
