<svg id="Logo--Streamline-Atlas" xmlns="http://www.w3.org/2000/svg" viewBox="-0.5 -0.5 16 16" height="16" width="16">
  <desc>
    Logo Streamline Icon: https://streamlinehq.com
  </desc>
  <defs></defs>
  <path d="M5.7125 2.7125a1.7874999999999999 1.7874999999999999 0 1 0 3.5749999999999997 0 1.7874999999999999 1.7874999999999999 0 1 0 -3.5749999999999997 0" fill="none" stroke="#000000" stroke-miterlimit="10" stroke-width="1"></path>
  <path d="M10.4875 10.46875a1.7874999999999999 1.7874999999999999 0 1 0 3.5749999999999997 0 1.7874999999999999 1.7874999999999999 0 1 0 -3.5749999999999997 0" fill="none" stroke="#000000" stroke-miterlimit="10" stroke-width="1"></path>
  <path d="M0.9375 10.46875a1.7874999999999999 1.7874999999999999 0 1 0 3.5749999999999997 0 1.7874999999999999 1.7874999999999999 0 1 0 -3.5749999999999997 0" fill="none" stroke="#000000" stroke-miterlimit="10" stroke-width="1"></path>
  <path d="M3.75 11.93125a5.36875 5.36875 0 0 0 7.5 0" fill="none" stroke="#000000" stroke-miterlimit="10" stroke-width="1"></path>
  <path d="M9.2625 3.0125a5.35625 5.35625 0 0 1 3.6062499999999997 5.06875 4.19375 4.19375 0 0 1 -0.05 0.6875" fill="none" stroke="#000000" stroke-miterlimit="10" stroke-width="1"></path>
  <path d="M2.1812500000000004 8.75a4.19375 4.19375 0 0 1 -0.05 -0.6875 5.35625 5.35625 0 0 1 3.6062499999999997 -5.05" fill="none" stroke="#000000" stroke-miterlimit="10" stroke-width="1"></path>
</svg>